<svg width="32" height="32" viewBox="0 0 32 32" fill="none" xmlns="http://www.w3.org/2000/svg">
<path d="M16.7209 9.00302L15.2549 9.00002C11.9109 8.99202 9.00787 11.709 8.98487 15.0001V18.7901C8.98487 19.5801 8.88487 20.3511 8.45387 21.0081L8.16687 21.4461C7.72986 22.1101 8.19987 23.0001 8.98487 23.0001H23.015C23.8 23.0001 24.269 22.1101 23.833 21.4461L23.546 21.0081C23.116 20.3511 23.015 19.5791 23.015 18.7891V15.0011C22.975 11.709 20.065 9.01102 16.7209 9.00302V9.00302Z" stroke="#333333" stroke-width="1.75" stroke-linecap="round" stroke-linejoin="round"/>
<path d="M18.9998 23.0001C18.9998 23.7958 18.6837 24.5588 18.1211 25.1215C17.5585 25.6841 16.7954 26.0001 15.9998 26.0001C15.2041 26.0001 14.4411 25.6841 13.8784 25.1215C13.3158 24.5588 12.9998 23.7958 12.9998 23.0001" stroke="#333333" stroke-width="1.75" stroke-linecap="round" stroke-linejoin="round"/>
<path d="M16 6C16.5305 6 17.0392 6.21072 17.4142 6.58579C17.7893 6.96087 18 7.46958 18 8.00002V9.00003H14V8.00002C14 7.46958 14.2107 6.96087 14.5858 6.58579C14.9609 6.21072 15.4696 6 16 6Z" stroke="#333333" stroke-width="1.75" stroke-linecap="round" stroke-linejoin="round"/>
</svg>
