<svg width="10" height="10" viewBox="0 0 10 10" fill="none" xmlns="http://www.w3.org/2000/svg">
<path d="M7.18 6C7.22 5.67 7.25 5.34 7.25 5C7.25 4.66 7.22 4.33 7.18 4H8.87C8.95 4.32 9 4.655 9 5C9 5.345 8.95 5.68 8.87 6H7.18ZM6.295 8.78C6.595 8.225 6.825 7.625 6.985 7H8.46C7.97558 7.83414 7.20706 8.466 6.295 8.78ZM6.17 6H3.83C3.78 5.67 3.75 5.34 3.75 5C3.75 4.66 3.78 4.325 3.83 4H6.17C6.215 4.325 6.25 4.66 6.25 5C6.25 5.34 6.215 5.67 6.17 6ZM5 8.98C4.585 8.38 4.25 7.715 4.045 7H5.955C5.75 7.715 5.415 8.38 5 8.98ZM3 3H1.54C2.01943 2.16361 2.7874 1.53074 3.7 1.22C3.4 1.775 3.175 2.375 3 3ZM1.54 7H3C3.175 7.625 3.4 8.225 3.7 8.78C2.78931 8.46583 2.02242 7.83386 1.54 7ZM1.13 6C1.05 5.68 1 5.345 1 5C1 4.655 1.05 4.32 1.13 4H2.82C2.78 4.33 2.75 4.66 2.75 5C2.75 5.34 2.78 5.67 2.82 6H1.13ZM5 1.015C5.415 1.615 5.75 2.285 5.955 3H4.045C4.25 2.285 4.585 1.615 5 1.015ZM8.46 3H6.985C6.82851 2.38073 6.59679 1.78295 6.295 1.22C7.215 1.535 7.98 2.17 8.46 3ZM5 0C2.235 0 0 2.25 0 5C0 6.32608 0.526784 7.59785 1.46447 8.53553C1.92876 8.99983 2.47995 9.36812 3.08658 9.6194C3.69321 9.87067 4.34339 10 5 10C6.32608 10 7.59785 9.47322 8.53553 8.53553C9.47322 7.59785 10 6.32608 10 5C10 4.34339 9.87067 3.69321 9.6194 3.08658C9.36812 2.47995 8.99983 1.92876 8.53553 1.46447C8.07124 1.00017 7.52005 0.631876 6.91342 0.380602C6.30679 0.129329 5.65661 0 5 0Z" fill="#222222"/>
</svg>
